<?xml version="1.0" encoding="UTF-8" standalone="no"?>
<svg
   xmlns:dc="http://purl.org/dc/elements/1.1/"
   xmlns:cc="http://creativecommons.org/ns#"
   xmlns:rdf="http://www.w3.org/1999/02/22-rdf-syntax-ns#"
   xmlns:svg="http://www.w3.org/2000/svg"
   xmlns="http://www.w3.org/2000/svg"
   xmlns:xlink="http://www.w3.org/1999/xlink"
   xmlns:sodipodi="http://sodipodi.sourceforge.net/DTD/sodipodi-0.dtd"
   xmlns:inkscape="http://www.inkscape.org/namespaces/inkscape"
   width="210mm"
   height="297mm"
   viewBox="0 0 210 297"
   version="1.1"
   id="svg8"
   inkscape:version="1.0 (6e3e5246a0, 2020-05-07)"
   sodipodi:docname="slides_thumbnail.svg">
  <defs
     id="defs2">
    <linearGradient
       inkscape:collect="always"
       id="linearGradient841">
      <stop
         style="stop-color:#0000ff;stop-opacity:1"
         offset="0"
         id="stop837" />
      <stop
         id="stop845"
         offset="0.25"
         style="stop-color:#00ff00;stop-opacity:1" />
      <stop
         style="stop-color:#ffff00;stop-opacity:1"
         offset="0.5"
         id="stop847" />
      <stop
         style="stop-color:#ff0000;stop-opacity:1"
         offset="1"
         id="stop839" />
    </linearGradient>
    <linearGradient
       inkscape:collect="always"
       xlink:href="#linearGradient841"
       id="linearGradient843"
       x1="56.073311"
       y1="91.328751"
       x2="135.4483"
       y2="144.24542"
       gradientUnits="userSpaceOnUse"
       gradientTransform="translate(-29.623191)" />
    <linearGradient
       gradientTransform="translate(-43.420376,78.973846)"
       gradientUnits="userSpaceOnUse"
       y2="144.24542"
       x2="135.4483"
       y1="91.328751"
       x1="56.073311"
       id="linearGradient843-3"
       xlink:href="#linearGradient841"
       inkscape:collect="always" />
    <linearGradient
       inkscape:collect="always"
       xlink:href="#linearGradient841"
       id="linearGradient843-3-3"
       x1="56.073311"
       y1="91.328751"
       x2="135.4483"
       y2="144.24542"
       gradientUnits="userSpaceOnUse"
       gradientTransform="translate(49.114701,22.90308)" />
  </defs>
  <sodipodi:namedview
     inkscape:snap-global="false"
     id="base"
     pagecolor="#ffffff"
     bordercolor="#666666"
     borderopacity="1.0"
     inkscape:pageopacity="0.0"
     inkscape:pageshadow="2"
     inkscape:zoom="1.64"
     inkscape:cx="318.80382"
     inkscape:cy="711.54954"
     inkscape:document-units="mm"
     inkscape:current-layer="layer1"
     inkscape:document-rotation="0"
     showgrid="false"
     inkscape:window-width="1920"
     inkscape:window-height="1007"
     inkscape:window-x="0"
     inkscape:window-y="0"
     inkscape:window-maximized="1" />
  <metadata
     id="metadata5">
    <rdf:RDF>
      <cc:Work
         rdf:about="">
        <dc:format>image/svg+xml</dc:format>
        <dc:type
           rdf:resource="http://purl.org/dc/dcmitype/StillImage" />
        <dc:title />
      </cc:Work>
    </rdf:RDF>
  </metadata>
  <g
     inkscape:label="Layer 1"
     inkscape:groupmode="layer"
     id="layer1">
    <rect
       inkscape:export-ydpi="160"
       inkscape:export-xdpi="160"
       inkscape:transform-center-y="4.8425006"
       inkscape:transform-center-x="67.211527"
       y="170.3026"
       x="12.652931"
       height="52.916668"
       width="79.375"
       id="rect833-5"
       style="fill:url(#linearGradient843-3);fill-opacity:1;stroke-width:0.939879;stroke-linecap:round" />
    <rect
       style="fill:#333333;fill-opacity:0.75;stroke-width:0.939877;stroke-linecap:round"
       id="rect835-6"
       width="79.375"
       height="52.916668"
       x="12.652931"
       y="170.3026"
       inkscape:transform-center-x="67.211523"
       inkscape:transform-center-y="4.8425007"
       inkscape:export-xdpi="160"
       inkscape:export-ydpi="160"
       inkscape:export-filename="/home/akb/repos/azureleaf.github.io/public/dorm-app-slides/slides-thumbnail.png" />
    <text
       id="text865"
       y="245.83844"
       x="127.4509"
       style="font-style:normal;font-weight:normal;font-size:83.1146px;line-height:1.25;font-family:sans-serif;fill:#808080;fill-opacity:1;stroke:none;stroke-width:2.07787"
       xml:space="preserve"><tspan
         style="fill:#808080;stroke-width:2.07787"
         y="245.83844"
         x="127.4509"
         id="tspan863"
         sodipodi:role="line">¥</tspan></text>
    <path
       id="path924-7"
       d="m 58.753442,174.13581 h -12.82603 c -1.763576,0 -3.206541,1.44288 -3.206541,3.20647 v 25.65219 c 0,1.76359 1.442965,3.20649 3.206541,3.20649 h 19.239114 c 1.763572,0 3.206482,-1.4429 3.206482,-3.20649 v -19.2391 l -9.619566,-9.61956 m 6.413084,28.85866 H 45.927412 v -25.65219 h 11.222796 v 8.01633 h 8.016318 v 17.63586 M 39.514331,180.54883 v 28.85866 h 25.652195 v 3.20654 H 39.514331 c -1.763574,0 -3.206477,-1.44296 -3.206477,-3.20654 v -28.85866 h 3.206477 m 9.619558,9.61955 v 3.20653 h 12.8261 v -3.20653 h -12.8261 m 0,6.41301 v 3.20654 h 8.016319 v -3.20654 z"
       style="fill:#808080;stroke-width:1.60326" />
    <path
       id="path947"
       d="m 52.340463,206.56911 c -7.937977,0 -14.400011,-6.46197 -14.400011,-14.39995 0,-7.93798 6.462034,-14.4 14.400011,-14.4 7.937977,0 14.399944,6.46202 14.399944,14.4 0,7.93798 -6.461967,14.39995 -14.399944,14.39995 m 0,-32.39998 a 17.999987,17.999987 0 0 0 -18.000032,18.00003 17.999987,17.999987 0 0 0 18.000032,17.99997 17.999987,17.999987 0 0 0 17.999968,-17.99997 17.999987,17.999987 0 0 0 -17.999968,-18.00003 m -3.600021,26.09999 10.799993,-8.09996 -10.799993,-8.10003 z"
       style="fill:#ffffff;stroke-width:1.79999" />
    <rect
       style="fill:url(#linearGradient843-3-3);fill-opacity:1;stroke-width:0.939879;stroke-linecap:round"
       id="rect833-5-5"
       width="79.375"
       height="52.916668"
       x="105.18801"
       y="114.23183"
       inkscape:transform-center-x="67.211527"
       inkscape:transform-center-y="4.8425006"
       inkscape:export-xdpi="160"
       inkscape:export-ydpi="160" />
    <rect
       inkscape:export-filename="/home/akb/repos/azureleaf.github.io/public/dorm-app-slides/slides-thumbnail.png"
       inkscape:export-ydpi="160"
       inkscape:export-xdpi="160"
       inkscape:transform-center-y="4.8425007"
       inkscape:transform-center-x="67.211523"
       y="114.23183"
       x="105.18801"
       height="52.916668"
       width="79.375"
       id="rect835-6-6"
       style="fill:#333333;fill-opacity:0.75;stroke-width:0.939877;stroke-linecap:round" />
    <text
       id="text851-2-0-1"
       y="162.26233"
       x="108.59759"
       style="font-style:normal;font-weight:normal;font-size:7.05556px;line-height:1.1;font-family:sans-serif;text-align:start;letter-spacing:0.264583px;word-spacing:0px;text-anchor:start;fill:#ffffff;fill-opacity:1;stroke:none;stroke-width:0.264583"
       xml:space="preserve"><tspan
         id="tspan854-2"
         style="font-style:normal;font-variant:normal;font-weight:900;font-stretch:normal;font-size:7.05556px;font-family:'Noto Sans CJK JP';-inkscape-font-specification:'Noto Sans CJK JP Heavy';text-align:start;text-anchor:start;fill:#ffffff;stroke-width:0.264583"
         y="162.26233"
         x="108.59759"
         sodipodi:role="line">会計機能解説スライド</tspan></text>
    <path
       style="stroke-width:1.60803;fill:#ffffff"
       d="m 128.42826,121.54311 h 16.08031 v 3.21603 h -16.08031 v 16.08037 h -3.21609 v -16.08037 c 0,-1.78487 1.43116,-3.21603 3.21609,-3.21603 m 6.43211,6.43211 h 16.08038 v 3.21609 h -16.08038 v 16.08032 h -3.21602 v -16.08032 c 0,-1.78493 1.43115,-3.21609 3.21602,-3.21609 m 6.43218,6.43212 h 12.86423 c 1.78493,0 3.21608,1.43115 3.21608,3.21609 v 12.86429 c 0,1.78493 -1.43115,3.21602 -3.21608,3.21602 h -12.86423 c -1.78494,0 -3.21609,-1.43109 -3.21609,-3.21602 v -12.86429 c 0,-1.78494 1.43115,-3.21609 3.21609,-3.21609 m 3.21602,3.21609 v 12.86429 l 9.64821,-6.43218 z"
       id="path913" />
    <text
       xml:space="preserve"
       style="font-style:normal;font-weight:normal;font-size:8.46667px;line-height:1.1;font-family:sans-serif;text-align:start;letter-spacing:0.264583px;word-spacing:0px;text-anchor:start;fill:#ffffff;fill-opacity:1;stroke:none;stroke-width:0.132292;stroke-miterlimit:4;stroke-dasharray:none"
       x="17.793243"
       y="219.92058"
       id="text851-2-0"><tspan
         sodipodi:role="line"
         x="17.793243"
         y="219.92058"
         style="font-style:normal;font-variant:normal;font-weight:900;font-stretch:normal;font-size:8.46667px;font-family:'Noto Sans CJK JP';-inkscape-font-specification:'Noto Sans CJK JP Heavy';text-align:start;text-anchor:start;fill:#ffffff;stroke:none;stroke-width:0.132292;stroke-miterlimit:4;stroke-dasharray:none"
         id="tspan854">機能解説スライド</tspan></text>
  </g>
</svg>
